<svg width="25" height="12" viewBox="0 0 25 12" fill="none" xmlns="http://www.w3.org/2000/svg">
<path opacity="0.35" d="M0.503174 2.99934C0.503174 1.80272 1.47322 0.832672 2.66984 0.832672H19.3365C20.5331 0.832672 21.5032 1.80272 21.5032 2.99934V8.99934C21.5032 10.196 20.5331 11.166 19.3365 11.166H2.66984C1.47322 11.166 0.503174 10.196 0.503174 8.99934V2.99934Z" stroke="black"/>
<path opacity="0.4" d="M23.0032 3.99933V7.99933C23.8079 7.66055 24.3312 6.87246 24.3312 5.99933C24.3312 5.1262 23.8079 4.33811 23.0032 3.99933Z" fill="black"/>
<path d="M2.00317 3.43267C2.00317 2.82516 2.49566 2.33267 3.10317 2.33267H18.9032C19.5107 2.33267 20.0032 2.82516 20.0032 3.43267V8.566C20.0032 9.17352 19.5107 9.66601 18.9032 9.66601H3.10317C2.49566 9.66601 2.00317 9.17352 2.00317 8.56601V3.43267Z" fill="black"/>
</svg>
