<svg width="18" height="12" viewBox="0 0 18 12" fill="none" xmlns="http://www.w3.org/2000/svg">
<path fill-rule="evenodd" clip-rule="evenodd" d="M16.67 0.665924H15.67C15.1178 0.665924 14.67 1.11364 14.67 1.66592V10.3326C14.67 10.8849 15.1178 11.3326 15.67 11.3326H16.67C17.2223 11.3326 17.67 10.8849 17.67 10.3326V1.66592C17.67 1.11364 17.2223 0.665924 16.67 0.665924ZM11.0034 2.99926H12.0034C12.5557 2.99926 13.0034 3.44697 13.0034 3.99926V10.3326C13.0034 10.8849 12.5557 11.3326 12.0034 11.3326H11.0034C10.4511 11.3326 10.0034 10.8849 10.0034 10.3326V3.99926C10.0034 3.44697 10.4511 2.99926 11.0034 2.99926ZM7.33671 5.33259H6.33671C5.78443 5.33259 5.33671 5.78031 5.33671 6.33259V10.3326C5.33671 10.8849 5.78443 11.3326 6.33671 11.3326H7.33671C7.889 11.3326 8.33671 10.8849 8.33671 10.3326V6.33259C8.33671 5.78031 7.889 5.33259 7.33671 5.33259ZM2.67004 7.33259H1.67004C1.11776 7.33259 0.670044 7.78031 0.670044 8.33259V10.3326C0.670044 10.8849 1.11776 11.3326 1.67004 11.3326H2.67004C3.22233 11.3326 3.67004 10.8849 3.67004 10.3326V8.33259C3.67004 7.78031 3.22233 7.33259 2.67004 7.33259Z" fill="black"/>
</svg>
