<svg width="16" height="12" viewBox="0 0 16 12" fill="none" xmlns="http://www.w3.org/2000/svg">
<path fill-rule="evenodd" clip-rule="evenodd" d="M8.33375 2.60731C10.5496 2.60741 12.6808 3.45885 14.2867 4.98565C14.4077 5.10352 14.601 5.10203 14.7201 4.98231L15.8761 3.81565C15.9364 3.75493 15.97 3.67267 15.9695 3.58709C15.969 3.50151 15.9344 3.41966 15.8734 3.35965C11.6583 -0.6799 5.00851 -0.6799 0.793416 3.35965C0.732357 3.41962 0.697714 3.50144 0.697151 3.58702C0.696587 3.6726 0.730152 3.75488 0.790416 3.81565L1.94675 4.98231C2.06578 5.10222 2.25922 5.1037 2.38008 4.98565C3.98623 3.45875 6.11764 2.60731 8.33375 2.60731ZM8.33375 6.40298C9.55124 6.40291 10.7253 6.85544 11.6277 7.67265C11.7498 7.78863 11.9421 7.78611 12.0611 7.66698L13.2157 6.50031C13.2766 6.43912 13.3103 6.3561 13.3094 6.26984C13.3085 6.18357 13.2731 6.10126 13.2111 6.04131C10.4629 3.48493 6.20695 3.48493 3.45875 6.04131C3.39667 6.10126 3.36125 6.18361 3.36044 6.26991C3.35962 6.3562 3.39348 6.43921 3.45442 6.50031L4.60875 7.66698C4.72774 7.78611 4.92002 7.78863 5.04208 7.67265C5.94395 6.85598 7.11706 6.40348 8.33375 6.40298ZM10.6467 8.9568C10.6485 9.04331 10.6145 9.12671 10.5527 9.18731L8.55542 11.203C8.49687 11.2622 8.41704 11.2956 8.33375 11.2956C8.25046 11.2956 8.17063 11.2622 8.11208 11.203L6.11442 9.18731C6.0527 9.12666 6.01876 9.04323 6.02059 8.95673C6.02242 8.87022 6.05986 8.7883 6.12408 8.73031C7.39965 7.65143 9.26784 7.65143 10.5434 8.73031C10.6076 8.78835 10.645 8.87029 10.6467 8.9568Z" fill="black"/>
</svg>
